<svg id="svg" version="1.1" xmlns="http://www.w3.org/2000/svg" xmlns:xlink="http://www.w3.org/1999/xlink" width="400" height="333.47135955831607" viewBox="0, 0, 400,333.47135955831607"><g id="svgg"><path id="path0" d="M183.299 31.385 C 124.391 33.704,80.866 68.467,67.407 123.948 C 61.374 148.814,60.720 180.100,65.715 204.860 C 79.048 270.945,134.727 309.449,205.386 301.446 C 253.640 295.981,285.068 269.097,299.778 220.704 C 306.671 198.028,298.041 181.260,279.503 181.307 C 266.074 181.341,256.178 189.290,251.904 203.476 C 244.410 228.353,224.045 249.690,202.532 255.203 C 187.627 259.023,170.498 257.322,156.936 250.673 C 130.904 237.911,119.273 211.615,119.257 165.489 C 119.244 125.480,128.770 101.399,150.297 87.019 C 170.651 73.423,202.566 72.967,221.946 85.996 C 232.791 93.286,250.064 109.465,257.033 118.860 L 258.972 121.474 255.992 124.298 C 254.352 125.851,243.773 136.182,232.482 147.254 C 213.350 166.016,211.914 167.362,211.384 167.031 C 210.523 166.493,164.312 132.831,162.772 131.620 C 151.695 122.907,138.287 131.314,143.032 143.997 C 145.121 149.581,146.130 150.438,177.778 173.505 C 210.166 197.113,210.422 197.267,215.871 196.293 C 218.900 195.751,219.379 195.333,239.110 175.979 C 249.484 165.804,262.191 153.382,267.348 148.374 C 292.966 123.500,320.464 96.382,321.325 95.145 C 322.434 93.552,326.706 89.209,339.983 76.178 C 349.172 67.160,349.420 66.888,350.547 64.596 C 355.883 53.748,348.817 43.130,338.317 46.217 C 333.251 47.707,332.286 48.525,310.983 69.397 C 300.816 79.358,292.431 87.508,292.350 87.507 C 292.268 87.507,291.433 85.985,290.493 84.126 C 272.736 48.996,232.967 29.430,183.299 31.385 " stroke="none" fill="#343434" fill-rule="evenodd"></path><path id="path1" d="M55.210 0.190 C 26.723 1.905,3.225 24.603,0.293 53.238 C -0.196 58.014,-0.092 277.215,0.401 281.297 C 3.595 307.736,23.072 328.042,49.839 332.841 C 54.118 333.608,345.512 333.607,350.059 332.840 C 376.833 328.323,396.784 307.340,399.722 280.607 C 400.117 277.020,400.100 56.369,399.705 52.784 C 396.751 25.974,376.897 5.362,349.482 0.646 C 346.852 0.194,62.475 -0.247,55.210 0.190 M206.625 31.865 C 245.456 36.041,274.320 53.873,290.441 83.649 C 291.720 86.011,292.494 87.170,292.707 87.040 C 292.884 86.932,301.260 78.772,311.320 68.907 C 332.685 47.957,333.963 46.898,339.173 45.816 C 349.196 43.735,355.798 54.016,350.980 64.201 C 349.775 66.748,348.610 68.000,335.598 80.730 C 328.025 88.139,322.509 93.756,321.841 94.739 C 321.229 95.640,318.098 98.955,314.884 102.104 C 296.490 120.127,268.607 147.375,266.115 149.764 C 261.814 153.887,236.177 178.987,227.588 187.485 C 219.104 195.878,218.541 196.274,214.767 196.493 C 209.494 196.798,209.607 196.868,177.215 173.263 C 145.161 149.905,145.421 150.128,142.767 143.762 C 139.275 135.387,146.089 126.534,154.889 128.013 C 159.268 128.749,156.810 127.129,187.578 149.563 L 211.870 167.276 216.425 162.779 C 223.180 156.110,247.824 131.999,253.661 126.350 L 258.736 121.437 257.825 120.139 C 251.258 110.781,233.360 93.832,221.989 86.204 C 204.513 74.479,176.276 73.461,156.029 83.826 C 133.854 95.178,122.162 116.962,119.826 151.277 C 117.576 184.322,122.664 213.582,133.530 230.090 C 153.271 260.081,198.171 266.320,225.397 242.854 C 238.811 231.292,247.506 218.280,251.768 203.389 C 255.894 188.971,267.182 180.434,281.138 181.175 C 299.441 182.148,306.875 199.384,299.193 223.039 C 283.892 270.156,252.736 296.353,205.797 301.570 C 127.915 310.226,70.703 264.715,63.089 188.048 C 56.099 117.680,84.113 62.066,137.336 40.645 C 156.834 32.798,183.675 29.397,206.625 31.865 " stroke="none" fill="#fbfbfb" fill-rule="evenodd"></path><path id="path2" d="M181.712 31.384 C 181.977 31.454,182.412 31.454,182.678 31.384 C 182.943 31.315,182.726 31.258,182.195 31.258 C 181.663 31.258,181.446 31.315,181.712 31.384 M318.012 62.250 C 316.881 63.389,316.018 64.320,316.094 64.320 C 316.170 64.320,317.157 63.389,318.288 62.250 C 319.420 61.111,320.283 60.179,320.207 60.179 C 320.131 60.179,319.144 61.111,318.012 62.250 M347.259 69.220 L 346.308 70.255 347.343 69.304 C 348.307 68.419,348.505 68.185,348.294 68.185 C 348.248 68.185,347.782 68.651,347.259 69.220 M304.341 75.707 L 302.139 77.985 304.417 75.783 C 305.669 74.572,306.694 73.547,306.694 73.505 C 306.694 73.304,306.386 73.592,304.341 75.707 M187.374 76.662 C 187.717 76.728,188.214 76.725,188.478 76.656 C 188.742 76.587,188.461 76.533,187.854 76.536 C 187.246 76.539,187.030 76.596,187.374 76.662 M336.916 79.296 L 334.714 81.573 336.991 79.372 C 339.106 77.326,339.394 77.019,339.193 77.019 C 339.151 77.019,338.127 78.043,336.916 79.296 M323.937 91.994 L 322.567 93.444 324.017 92.074 C 324.814 91.320,325.466 90.668,325.466 90.625 C 325.466 90.419,325.210 90.648,323.937 91.994 M141.600 94.065 L 140.649 95.100 141.684 94.149 C 142.647 93.263,142.846 93.030,142.635 93.030 C 142.589 93.030,142.123 93.496,141.600 94.065 M139.392 96.273 L 138.440 97.308 139.476 96.357 C 140.045 95.834,140.511 95.368,140.511 95.322 C 140.511 95.111,140.277 95.310,139.392 96.273 M319.237 97.792 L 318.427 98.689 319.324 97.878 C 320.160 97.122,320.348 96.894,320.134 96.894 C 320.087 96.894,319.683 97.298,319.237 97.792 M243.754 104.486 C 244.269 105.017,244.753 105.452,244.829 105.452 C 244.905 105.452,244.545 105.017,244.030 104.486 C 243.515 103.954,243.032 103.520,242.956 103.520 C 242.880 103.520,243.239 103.954,243.754 104.486 M310.691 106.073 L 308.489 108.351 310.766 106.149 C 312.019 104.938,313.043 103.913,313.043 103.871 C 313.043 103.670,312.736 103.958,310.691 106.073 M248.585 109.317 C 249.178 109.924,249.726 110.421,249.801 110.421 C 249.877 110.421,249.454 109.924,248.861 109.317 C 248.268 108.709,247.721 108.213,247.645 108.213 C 247.569 108.213,247.992 108.709,248.585 109.317 M296.888 119.600 L 294.686 121.877 296.963 119.675 C 298.216 118.464,299.241 117.439,299.241 117.398 C 299.241 117.196,298.933 117.485,296.888 119.600 M283.085 133.126 L 280.883 135.404 283.161 133.202 C 284.413 131.991,285.438 130.966,285.438 130.924 C 285.438 130.723,285.130 131.011,283.085 133.126 M246.239 133.471 C 245.108 134.610,244.244 135.542,244.320 135.542 C 244.396 135.542,245.384 134.610,246.515 133.471 C 247.646 132.333,248.509 131.401,248.433 131.401 C 248.357 131.401,247.370 132.333,246.239 133.471 M232.436 146.998 C 231.305 148.137,230.442 149.068,230.518 149.068 C 230.594 149.068,231.581 148.137,232.712 146.998 C 233.843 145.859,234.707 144.928,234.631 144.928 C 234.555 144.928,233.567 145.859,232.436 146.998 M265.010 150.587 C 263.879 151.725,263.016 152.657,263.092 152.657 C 263.168 152.657,264.155 151.725,265.286 150.587 C 266.418 149.448,267.281 148.516,267.205 148.516 C 267.129 148.516,266.141 149.448,265.010 150.587 M119.337 159.282 C 119.337 160.117,119.389 160.459,119.452 160.041 C 119.516 159.624,119.516 158.941,119.452 158.523 C 119.389 158.106,119.337 158.447,119.337 159.282 M218.765 160.455 L 216.563 162.733 218.841 160.531 C 220.956 158.486,221.244 158.178,221.043 158.178 C 221.001 158.178,219.976 159.203,218.765 160.455 M251.208 164.113 C 250.077 165.252,249.213 166.184,249.289 166.184 C 249.365 166.184,250.353 165.252,251.484 164.113 C 252.615 162.974,253.478 162.043,253.402 162.043 C 253.326 162.043,252.339 162.974,251.208 164.113 M62.225 169.082 C 62.224 171.663,62.266 172.756,62.317 171.511 C 62.368 170.266,62.368 168.154,62.318 166.818 C 62.267 165.482,62.225 166.501,62.225 169.082 M119.337 171.705 C 119.337 172.540,119.389 172.881,119.452 172.464 C 119.516 172.046,119.516 171.363,119.452 170.945 C 119.389 170.528,119.337 170.870,119.337 171.705 M237.405 177.640 C 236.274 178.778,235.411 179.710,235.487 179.710 C 235.562 179.710,236.550 178.778,237.681 177.640 C 238.812 176.501,239.676 175.569,239.600 175.569 C 239.524 175.569,238.536 176.501,237.405 177.640 M230.770 237.888 L 229.262 239.476 230.849 237.967 C 232.324 236.565,232.563 236.301,232.358 236.301 C 232.315 236.301,231.600 237.015,230.770 237.888 M97.999 267.633 C 98.823 268.468,99.560 269.151,99.636 269.151 C 99.712 269.151,99.099 268.468,98.275 267.633 C 97.450 266.798,96.713 266.115,96.637 266.115 C 96.561 266.115,97.174 266.798,97.999 267.633 M270.517 272.395 L 269.565 273.430 270.600 272.479 C 271.564 271.593,271.763 271.360,271.552 271.360 C 271.506 271.360,271.040 271.825,270.517 272.395 M179.503 302.468 C 179.769 302.537,180.204 302.537,180.469 302.468 C 180.735 302.398,180.518 302.341,179.986 302.341 C 179.455 302.341,179.237 302.398,179.503 302.468 M194.134 302.468 C 194.400 302.537,194.834 302.537,195.100 302.468 C 195.366 302.398,195.148 302.341,194.617 302.341 C 194.086 302.341,193.868 302.398,194.134 302.468 " stroke="none" fill="#acaaab" fill-rule="evenodd"></path><path id="path3" d="M183.785 31.389 C 184.129 31.455,184.625 31.453,184.889 31.384 C 185.153 31.315,184.872 31.260,184.265 31.264 C 183.658 31.267,183.442 31.323,183.785 31.389 M195.931 31.389 C 196.275 31.455,196.772 31.453,197.036 31.384 C 197.300 31.315,197.019 31.260,196.411 31.264 C 195.804 31.267,195.588 31.323,195.931 31.389 M326.570 53.968 C 325.439 55.107,324.576 56.039,324.651 56.039 C 324.727 56.039,325.715 55.107,326.846 53.968 C 327.977 52.830,328.841 51.898,328.765 51.898 C 328.689 51.898,327.701 52.830,326.570 53.968 M98.682 66.322 L 96.480 68.599 98.758 66.397 C 100.873 64.352,101.161 64.044,100.960 64.044 C 100.918 64.044,99.893 65.069,98.682 66.322 M312.898 67.426 L 310.973 69.427 312.974 67.502 C 314.833 65.714,315.102 65.424,314.899 65.424 C 314.857 65.424,313.957 66.325,312.898 67.426 M342.160 74.051 L 340.235 76.052 342.236 74.127 C 344.095 72.340,344.363 72.050,344.161 72.050 C 344.119 72.050,343.218 72.950,342.160 74.051 M184.061 76.662 C 184.405 76.728,184.901 76.725,185.165 76.656 C 185.429 76.587,185.148 76.533,184.541 76.536 C 183.934 76.539,183.718 76.596,184.061 76.662 M190.269 76.657 C 190.535 76.726,190.970 76.726,191.235 76.657 C 191.501 76.587,191.284 76.531,190.752 76.531 C 190.221 76.531,190.003 76.587,190.269 76.657 M299.095 80.952 L 297.170 82.954 299.172 81.029 C 301.031 79.241,301.299 78.951,301.097 78.951 C 301.055 78.951,300.154 79.852,299.095 80.952 M328.357 87.578 L 326.432 89.579 328.433 87.654 C 329.534 86.595,330.435 85.695,330.435 85.653 C 330.435 85.450,330.145 85.719,328.357 87.578 M315.935 100.828 L 314.010 102.830 316.011 100.905 C 317.112 99.846,318.012 98.945,318.012 98.903 C 318.012 98.701,317.723 98.969,315.935 100.828 M302.132 114.355 L 300.207 116.356 302.208 114.431 C 304.067 112.643,304.336 112.353,304.133 112.353 C 304.091 112.353,303.191 113.254,302.132 114.355 M254.374 125.673 L 252.726 127.398 254.451 125.751 C 255.400 124.844,256.177 124.068,256.177 124.025 C 256.177 123.821,255.904 124.070,254.374 125.673 M288.329 127.881 L 286.404 129.883 288.406 127.958 C 290.265 126.170,290.533 125.880,290.331 125.880 C 290.289 125.880,289.388 126.781,288.329 127.881 M240.994 138.716 C 239.863 139.855,238.999 140.787,239.075 140.787 C 239.151 140.787,240.139 139.855,241.270 138.716 C 242.401 137.578,243.264 136.646,243.188 136.646 C 243.112 136.646,242.125 137.578,240.994 138.716 M274.528 141.408 L 272.326 143.685 274.603 141.483 C 276.718 139.438,277.006 139.130,276.805 139.130 C 276.764 139.130,275.739 140.155,274.528 141.408 M227.322 152.174 L 225.397 154.175 227.398 152.250 C 229.257 150.462,229.526 150.173,229.323 150.173 C 229.281 150.173,228.381 151.073,227.322 152.174 M119.319 156.522 C 119.319 157.053,119.376 157.271,119.445 157.005 C 119.514 156.739,119.514 156.304,119.445 156.039 C 119.376 155.773,119.319 155.990,119.319 156.522 M256.453 158.868 C 255.322 160.007,254.458 160.939,254.534 160.939 C 254.610 160.939,255.598 160.007,256.729 158.868 C 257.860 157.729,258.723 156.798,258.647 156.798 C 258.571 156.798,257.584 157.729,256.453 158.868 M62.452 159.558 C 62.452 160.090,62.509 160.307,62.578 160.041 C 62.648 159.776,62.648 159.341,62.578 159.075 C 62.509 158.810,62.452 159.027,62.452 159.558 M213.657 165.562 L 211.870 167.426 213.734 165.639 C 214.758 164.657,215.597 163.818,215.597 163.776 C 215.597 163.573,215.316 163.832,213.657 165.562 M242.650 172.395 C 241.519 173.533,240.656 174.465,240.732 174.465 C 240.807 174.465,241.795 173.533,242.926 172.395 C 244.057 171.256,244.921 170.324,244.845 170.324 C 244.769 170.324,243.781 171.256,242.650 172.395 M119.319 174.465 C 119.319 174.997,119.376 175.214,119.445 174.948 C 119.514 174.683,119.514 174.248,119.445 173.982 C 119.376 173.716,119.319 173.934,119.319 174.465 M62.452 178.330 C 62.452 178.861,62.509 179.079,62.578 178.813 C 62.648 178.547,62.648 178.112,62.578 177.847 C 62.509 177.581,62.452 177.798,62.452 178.330 M228.978 185.852 L 227.053 187.854 229.055 185.929 C 230.913 184.141,231.182 183.851,230.979 183.851 C 230.937 183.851,230.037 184.752,228.978 185.852 M140.511 238.923 C 141.489 239.910,142.351 240.718,142.427 240.718 C 142.503 240.718,141.765 239.910,140.787 238.923 C 139.809 237.937,138.946 237.129,138.870 237.129 C 138.794 237.129,139.533 237.937,140.511 238.923 M185.034 257.209 C 185.913 257.264,187.279 257.264,188.071 257.208 C 188.862 257.152,188.144 257.107,186.473 257.108 C 184.803 257.109,184.156 257.154,185.034 257.209 M181.850 302.472 C 182.191 302.538,182.750 302.538,183.092 302.472 C 183.433 302.406,183.154 302.353,182.471 302.353 C 181.787 302.353,181.508 302.406,181.850 302.472 M191.377 302.476 C 191.797 302.539,192.418 302.537,192.757 302.472 C 193.097 302.406,192.754 302.354,191.994 302.356 C 191.235 302.358,190.958 302.412,191.377 302.476 " stroke="none" fill="#8c8c8c" fill-rule="evenodd"></path><path id="path4" d="M274.948 62.526 C 275.463 63.057,275.947 63.492,276.023 63.492 C 276.099 63.492,275.739 63.057,275.224 62.526 C 274.709 61.994,274.226 61.560,274.150 61.560 C 274.074 61.560,274.433 61.994,274.948 62.526 " stroke="none" fill="#949494" fill-rule="evenodd"></path></g></svg>